#N canvas 0 22 1276 704 10;
#X obj 228 47 / 127;
#X obj 288 47 / 127;
#X obj 348 47 / 127;
#X obj 409 46 / 127;
#X obj 469 46 / 127;
#X obj 100 100 cnv 15 100 50 empty empty empty 20 12 0 14 -258113 -66577
0;
#X obj 60 116 ctlin;
#X floatatom 167 133 5 0 0 0 - - -;
#X floatatom 134 133 5 0 0 0 - - -;
#X floatatom 101 133 5 0 0 0 - - -;
#X text 100 116 Value;
#X text 140 116 CC;
#X text 173 116 CH;
#X obj 228 66 s ccvol1;
#X obj 228 28 ctlin 1 7;
#X obj 288 28 ctlin 2 7;
#X obj 348 28 ctlin 3 7;
#X obj 409 28 ctlin 4 7;
#X obj 288 66 s ccvol2;
#X obj 469 64 s ccvol5;
#X obj 409 64 s ccvol4;
#X obj 348 65 s ccvol3;
#X obj 469 28 ctlin 5 7;
#X obj 226 131 s cccrlc;
#X obj 226 110 sel 0;
#X obj 294 111 sel 0;
#X obj 294 132 s cccb;
#X obj 294 89 ctlin 34 7;
#X obj 363 111 sel 0;
#X obj 431 112 sel 0;
#X obj 499 113 sel 0;
#X obj 363 89 ctlin 35 7;
#X obj 431 90 ctlin 36 7;
#X obj 499 91 ctlin 37 7;
#X obj 363 132 s ccnsds;
#X obj 431 133 s ccsph;
#X obj 499 134 s ccsmp;
#X obj 744 32 ctlin 87 7;
#X obj 744 71 s ccclk;
#X obj 744 52 sel 0;
#X obj 817 52 sel 0;
#X obj 887 52 sel 0;
#X obj 817 32 ctlin 89 7;
#X obj 887 32 ctlin 88 7;
#X obj 817 71 s cc3d;
#X obj 887 71 s ccbkg;
#X obj 955 32 ctlin 90 7;
#X obj 955 93 s ccclrs;
#X obj 956 54 sel 0;
#X obj 955 73 counter 7;
#X obj 574 115 sel 0;
#X obj 225 197 / 127;
#X obj 378 197 / 127;
#X obj 224 309 / 127;
#X obj 228 88 ctlin 33 7;
#X obj 225 178 ctlin 109 7;
#X obj 225 219 * 200;
#X obj 304 179 ctlin 110 7;
#X obj 304 202 s ccstps1;
#X obj 378 220 * 200;
#X obj 378 242 s ccptchcrlc;
#X obj 378 178 ctlin 111 7;
#X obj 373 308 / 127;
#X obj 224 287 ctlin 112 7;
#X obj 298 288 ctlin 113 7;
#X obj 373 288 ctlin 114 7;
#X obj 450 287 ctlin 115 7;
#X obj 525 288 ctlin 116 7;
#X obj 223 352 s cccbspd;
#X obj 225 240 s cccrclspd;
#X obj 223 329 * 200;
#X obj 298 354 s cccbfmp;
#X obj 298 309 / 127;
#X obj 298 330 * 100;
#X obj 373 354 s cccbfmdp;
#X obj 373 330 * 100;
#X obj 525 344 s cccbstps;
#X obj 449 363 s cclfocb;
#X obj 450 315 / 127;
#X obj 449 342 * 5;
#X obj 224 413 / 127;
#X obj 373 412 / 127;
#X text 113 100 MCC Monitor;
#X obj 223 456 s ccnsspb;
#X obj 223 433 * 100;
#X obj 224 391 ctlin 101 7;
#X obj 298 415 s ccnsrs;
#X obj 298 392 ctlin 102 7;
#X obj 373 392 ctlin 103 7;
#X obj 372 476 s lpf-nsdt-nb;
#X obj 373 434 * 10000;
#X obj 221 528 / 127;
#X obj 567 533 / 127;
#X obj 221 506 ctlin 104 7;
#X obj 301 508 ctlin 105 7;
#X obj 489 511 ctlin 106 7;
#X obj 567 512 ctlin 107 7;
#X obj 220 571 s ccspgrn;
#X obj 300 568 s ccgrnspd;
#X floatatom 300 549 5 0 0 0 - - -;
#X obj 300 528 maxlib/scale 0 127 -226 1000 0;
#X obj 489 555 s ccgrnptc;
#X obj 489 532 / 127;
#X obj 566 555 s ccgrnstn;
#X obj 220 548 * 200;
#X obj 426 651 / 127;
#X obj 358 650 / 127;
#X obj 217 627 ctlin 93 7;
#X obj 290 628 ctlin 94 7;
#X obj 358 629 ctlin 95 7;
#X obj 426 630 ctlin 96 7;
#X obj 217 692 s ccdlysmp;
#X obj 217 649 / 127;
#X obj 217 671 * 2;
#X obj 290 674 s ccllmt;
#X obj 290 650 / 127;
#X obj 358 674 s ccrlmt;
#X obj 427 712 s ccplbspd;
#X obj 426 672 * 4;
#X obj 427 690 - 2;
#X text 82 391 NOISE SECTION;
#X text 86 289 CUBE SECTION;
#X text 90 179 CIRLCE SECTION;
#X text 100 26 MASTER SECTION;
#X obj 639 534 sel 0;
#X obj 639 514 ctlin 73 7;
#X obj 639 552 s ccgrainsam;
#X obj 495 651 sel 0;
#X obj 496 631 ctlin 74 7;
#X obj 496 669 s ccaudiosam;
#X obj 473 178 ctlin 109 6;
#X obj 557 178 ctlin 110 6;
#X obj 642 178 ctlin 111 6;
#X obj 473 200 / 127;
#X obj 559 199 / 127;
#X obj 641 197 / 127;
#X obj 730 180 ctlin 98 6;
#X obj 842 181 ctlin 99 6;
#X obj 555 223 s ccdlywcrcl;
#X obj 471 221 s ccrevwcrcl;
#X obj 640 216 * 12000;
#X obj 640 234 clip 30 12000;
#X obj 373 454 clip 30 10000;
#X obj 844 232 s ccdlyfbkcrcl;
#X obj 843 204 / 127;
#X obj 732 241 s ccrevroomcrcl;
#X obj 731 201 / 127;
#X obj 732 220 * 100;
#X obj 603 310 / 127;
#X obj 679 310 / 127;
#X obj 753 307 / 127;
#X obj 752 326 * 12000;
#X obj 752 344 clip 30 12000;
#X obj 918 311 / 127;
#X obj 843 311 / 127;
#X obj 844 330 * 100;
#X obj 603 288 ctlin 112 6;
#X obj 678 289 ctlin 113 6;
#X obj 754 288 ctlin 114 6;
#X obj 842 290 ctlin 115 6;
#X obj 917 290 ctlin 116 6;
#X obj 678 334 s ccdlywcb;
#X obj 603 346 s ccrevwcb;
#X obj 752 367 s cclpf-cb-nb;
#X obj 639 257 s cclpf-crcl-nb;
#X obj 844 351 s ccrevroom-cb;
#X obj 918 331 s ccdlyfbkcb;
#X obj 462 415 / 127;
#X obj 540 414 / 127;
#X obj 617 414 / 127;
#X obj 618 433 * 100;
#X obj 462 393 ctlin 101 6;
#X obj 538 393 ctlin 102 6;
#X obj 616 393 ctlin 103 6;
#X obj 462 451 s ccrevwnds;
#X obj 538 438 s ccdlywnds;
#X obj 618 454 s ccrevroom-nds;
#X obj 721 536 / 127;
#X obj 800 536 / 127;
#X obj 876 534 / 127;
#X obj 875 553 * 12000;
#X obj 875 571 clip 30 12000;
#X obj 1041 538 / 127;
#X obj 966 538 / 127;
#X obj 967 557 * 100;
#X obj 721 514 ctlin 104 6;
#X obj 799 515 ctlin 105 6;
#X obj 877 515 ctlin 106 6;
#X obj 965 517 ctlin 107 6;
#X obj 1040 515 ctlin 108 6;
#X obj 719 559 s ccrevwgrn;
#X obj 799 560 s ccdlywgrn;
#X obj 875 594 s cclpf-grn-nb;
#X obj 967 583 s ccrevroom-grn;
#X obj 1039 561 s ccdlyfbkgrn;
#X obj 575 654 / 127;
#X obj 651 654 / 127;
#X obj 725 652 / 127;
#X obj 724 671 * 12000;
#X obj 724 689 clip 30 12000;
#X obj 907 659 / 127;
#X obj 815 656 / 127;
#X obj 816 675 * 100;
#X obj 575 632 ctlin 93 6;
#X obj 650 633 ctlin 94 6;
#X obj 726 633 ctlin 95 6;
#X obj 814 635 ctlin 96 6;
#X obj 906 636 ctlin 97 6;
#X obj 575 690 s ccrevwsmp;
#X obj 650 678 s ccdlywsmp;
#X obj 724 712 s cclpf-smp-nb;
#X obj 815 695 s ccrevroom-smp;
#X obj 907 679 s ccdlyfbksmp;
#X obj 959 201 / 127;
#X obj 958 239 s ccdlytimecrcl;
#X obj 958 178 ctlin 0 6;
#X obj 959 220 * 2000;
#X obj 1001 313 / 127;
#X obj 1001 332 * 2000;
#X obj 1000 290 ctlin 1 6;
#X obj 719 416 / 127;
#X obj 719 435 * 2000;
#X obj 719 396 ctlin 2 6;
#X obj 1125 539 / 127;
#X obj 1125 558 * 2000;
#X obj 1124 516 ctlin 3 6;
#X obj 995 654 / 127;
#X obj 995 673 * 2000;
#X obj 994 631 ctlin 4 6;
#X obj 1000 351 s ccdlytimecb;
#X obj 718 454 s ccdlytimends;
#X obj 1124 577 s ccdlytimegrn;
#X obj 994 692 s ccdlytimesmp;
#X obj 1068 199 / 127;
#X obj 1067 176 ctlin 9 7;
#X obj 1068 218 * 10000;
#X obj 1067 237 s ccdlybpcrcl;
#X obj 1098 313 / 127;
#X obj 1098 332 * 10000;
#X obj 1097 351 s ccdlybpcb;
#X obj 1097 290 ctlin 10 7;
#X obj 815 416 / 127;
#X obj 815 437 * 10000;
#X obj 814 394 ctlin 11 7;
#X obj 814 456 s ccdlybpnds;
#X obj 1221 556 * 10000;
#X obj 1221 533 / 127;
#X obj 1220 513 ctlin 12 7;
#X obj 1220 575 s ccdlybpgrn;
#X obj 1090 674 * 10000;
#X obj 1090 651 / 127;
#X obj 1089 693 s ccdlybpsmp;
#X obj 1089 631 ctlin 13 7;
#X obj 575 32 ctlin 75 7;
#X obj 575 52 sel 0;
#X obj 575 71 s createfs;
#X obj 574 136 s destr;
#X obj 574 93 ctlin 77 7;
#X obj 646 53 sel 0;
#X obj 646 33 ctlin 76 7;
#X obj 646 72 s create;
#X text 81 506 GRAIN/SPHERE SECTION;
#X text 78 626 SAMPLER/CUBES SECTION;
#X connect 0 0 13 0;
#X connect 1 0 18 0;
#X connect 2 0 21 0;
#X connect 3 0 20 0;
#X connect 4 0 19 0;
#X connect 6 0 9 0;
#X connect 6 1 8 0;
#X connect 6 2 7 0;
#X connect 14 0 0 0;
#X connect 15 0 1 0;
#X connect 16 0 2 0;
#X connect 17 0 3 0;
#X connect 22 0 4 0;
#X connect 24 0 23 0;
#X connect 25 0 26 0;
#X connect 27 0 25 0;
#X connect 28 0 34 0;
#X connect 29 0 35 0;
#X connect 30 0 36 0;
#X connect 31 0 28 0;
#X connect 32 0 29 0;
#X connect 33 0 30 0;
#X connect 37 0 39 0;
#X connect 39 0 38 0;
#X connect 40 0 44 0;
#X connect 41 0 45 0;
#X connect 42 0 40 0;
#X connect 43 0 41 0;
#X connect 46 0 48 0;
#X connect 48 1 49 0;
#X connect 49 0 47 0;
#X connect 50 0 256 0;
#X connect 51 0 56 0;
#X connect 52 0 59 0;
#X connect 53 0 70 0;
#X connect 54 0 24 0;
#X connect 55 0 51 0;
#X connect 56 0 69 0;
#X connect 57 0 58 0;
#X connect 59 0 60 0;
#X connect 61 0 52 0;
#X connect 62 0 75 0;
#X connect 63 0 53 0;
#X connect 64 0 72 0;
#X connect 65 0 62 0;
#X connect 66 0 78 0;
#X connect 67 0 76 0;
#X connect 70 0 68 0;
#X connect 72 0 73 0;
#X connect 73 0 71 0;
#X connect 75 0 74 0;
#X connect 78 0 79 0;
#X connect 79 0 77 0;
#X connect 80 0 84 0;
#X connect 81 0 90 0;
#X connect 84 0 83 0;
#X connect 85 0 80 0;
#X connect 87 0 86 0;
#X connect 88 0 81 0;
#X connect 90 0 142 0;
#X connect 91 0 104 0;
#X connect 92 0 103 0;
#X connect 93 0 91 0;
#X connect 94 0 100 0;
#X connect 95 0 102 0;
#X connect 96 0 92 0;
#X connect 99 0 98 0;
#X connect 100 0 99 0;
#X connect 102 0 101 0;
#X connect 104 0 97 0;
#X connect 105 0 118 0;
#X connect 106 0 116 0;
#X connect 107 0 112 0;
#X connect 108 0 115 0;
#X connect 109 0 106 0;
#X connect 110 0 105 0;
#X connect 112 0 113 0;
#X connect 113 0 111 0;
#X connect 115 0 114 0;
#X connect 118 0 119 0;
#X connect 119 0 117 0;
#X connect 124 0 126 0;
#X connect 125 0 124 0;
#X connect 127 0 129 0;
#X connect 128 0 127 0;
#X connect 130 0 133 0;
#X connect 131 0 134 0;
#X connect 132 0 135 0;
#X connect 133 0 139 0;
#X connect 134 0 138 0;
#X connect 135 0 140 0;
#X connect 136 0 146 0;
#X connect 137 0 144 0;
#X connect 140 0 141 0;
#X connect 141 0 164 0;
#X connect 142 0 89 0;
#X connect 144 0 143 0;
#X connect 146 0 147 0;
#X connect 147 0 145 0;
#X connect 148 0 162 0;
#X connect 149 0 161 0;
#X connect 150 0 151 0;
#X connect 151 0 152 0;
#X connect 152 0 163 0;
#X connect 153 0 166 0;
#X connect 154 0 155 0;
#X connect 155 0 165 0;
#X connect 156 0 148 0;
#X connect 157 0 149 0;
#X connect 158 0 150 0;
#X connect 159 0 154 0;
#X connect 160 0 153 0;
#X connect 167 0 174 0;
#X connect 168 0 175 0;
#X connect 169 0 170 0;
#X connect 170 0 176 0;
#X connect 171 0 167 0;
#X connect 172 0 168 0;
#X connect 173 0 169 0;
#X connect 177 0 190 0;
#X connect 178 0 191 0;
#X connect 179 0 180 0;
#X connect 180 0 181 0;
#X connect 181 0 192 0;
#X connect 182 0 194 0;
#X connect 183 0 184 0;
#X connect 184 0 193 0;
#X connect 185 0 177 0;
#X connect 186 0 178 0;
#X connect 187 0 179 0;
#X connect 188 0 183 0;
#X connect 189 0 182 0;
#X connect 195 0 208 0;
#X connect 196 0 209 0;
#X connect 197 0 198 0;
#X connect 198 0 199 0;
#X connect 199 0 210 0;
#X connect 200 0 212 0;
#X connect 201 0 202 0;
#X connect 202 0 211 0;
#X connect 203 0 195 0;
#X connect 204 0 196 0;
#X connect 205 0 197 0;
#X connect 206 0 201 0;
#X connect 207 0 200 0;
#X connect 213 0 216 0;
#X connect 215 0 213 0;
#X connect 216 0 214 0;
#X connect 217 0 218 0;
#X connect 218 0 229 0;
#X connect 219 0 217 0;
#X connect 220 0 221 0;
#X connect 221 0 230 0;
#X connect 222 0 220 0;
#X connect 223 0 224 0;
#X connect 224 0 231 0;
#X connect 225 0 223 0;
#X connect 226 0 227 0;
#X connect 227 0 232 0;
#X connect 228 0 226 0;
#X connect 233 0 235 0;
#X connect 234 0 233 0;
#X connect 235 0 236 0;
#X connect 237 0 238 0;
#X connect 238 0 239 0;
#X connect 240 0 237 0;
#X connect 241 0 242 0;
#X connect 242 0 244 0;
#X connect 243 0 241 0;
#X connect 245 0 248 0;
#X connect 246 0 245 0;
#X connect 247 0 246 0;
#X connect 249 0 251 0;
#X connect 250 0 249 0;
#X connect 252 0 250 0;
#X connect 253 0 254 0;
#X connect 254 0 255 0;
#X connect 257 0 50 0;
#X connect 258 0 260 0;
#X connect 259 0 258 0;
#X coords 0 -1 1 1 100 50 1 100 100;
