#N canvas 517 46 519 704 10;
#X obj 31 38 bng 15 250 50 0 empty audiosam empty 17 7 0 10 -262144
-1 -1;
#X obj 31 57 openpanel;
#X obj 31 97 soundfiler;
#X obj 45 122 expr 44100 / $f1;
#X floatatom 25 228 5 0 0 0 - - -;
#X obj 26 302 phasor~;
#X obj 26 424 *~;
#X obj 299 253 hsl 128 15 0 1 0 0 empty empty empty -2 -8 0 10 -262144
-1 -1 7528 1;
#X obj 172 444 r counter5;
#X obj 40 539 line~;
#X obj 25 567 *~;
#X obj 25 593 hip~ 5;
#X obj 236 526 delay 1000;
#X obj 172 480 bng 15 250 50 0 empty empty empty 17 7 0 10 -262144
-1 -1;
#X floatatom 292 473 5 0 2000 0 - dlysamp -;
#X obj 58 218 t b f;
#X obj 26 282 *;
#X obj 26 370 +~;
#X obj 26 338 *~;
#X obj 154 352 -;
#X floatatom 154 330 5 0 0 0 - - -;
#X obj 44 165 expr 1 / $f1;
#X obj 44 189 *;
#X obj 224 262 t f b;
#X obj 158 421 unsig~ 20;
#X text 280 39 left limit;
#X text 356 42 right limit;
#X text 295 268 play position;
#X obj 25 621 s~ samplerfr;
#X obj 353 60 r rlmt;
#X obj 291 63 r llmt;
#X obj 99 217 r plbspd;
#X floatatom 320 332 5 0 0 0 - - -;
#X obj 125 593 env~;
#X obj 182 609 s samprms;
#X msg 197 526 0 50;
#X msg 113 508 1 100;
#X obj 319 367 s plyps;
#X obj 291 496 * 1000;
#X msg 31 77 read -resize \$1 SMP;
#X obj 26 467 tabread4~ SMP;
#X connect 0 0 1 0;
#X connect 1 0 39 0;
#X connect 2 0 3 0;
#X connect 2 0 6 1;
#X connect 3 0 22 1;
#X connect 4 0 16 0;
#X connect 5 0 18 0;
#X connect 6 0 40 0;
#X connect 7 0 32 0;
#X connect 8 0 13 0;
#X connect 9 0 10 1;
#X connect 10 0 11 0;
#X connect 11 0 28 0;
#X connect 11 0 33 0;
#X connect 12 0 35 0;
#X connect 13 0 36 0;
#X connect 13 0 12 0;
#X connect 14 0 38 0;
#X connect 15 0 4 0;
#X connect 15 1 16 1;
#X connect 16 0 5 0;
#X connect 17 0 6 0;
#X connect 17 0 24 0;
#X connect 18 0 17 0;
#X connect 19 0 18 1;
#X connect 19 0 21 0;
#X connect 20 0 19 0;
#X connect 21 0 22 0;
#X connect 22 0 4 0;
#X connect 23 0 17 1;
#X connect 23 0 19 1;
#X connect 23 1 20 0;
#X connect 24 0 7 0;
#X connect 29 0 20 0;
#X connect 30 0 23 0;
#X connect 31 0 15 0;
#X connect 32 0 37 0;
#X connect 33 0 34 0;
#X connect 35 0 9 0;
#X connect 36 0 9 0;
#X connect 38 0 12 1;
#X connect 39 0 2 0;
#X connect 40 0 10 0;
