#N canvas 36 97 919 661 10;
#X obj -36 -442 *~ 1;
#X obj -36 -411 bp~ 1000 2;
#X obj -36 -378 clip~ -0.9 0.9;
#X floatatom 73 -448 5 0 0 0 - dlytimecrcl -;
#X obj 24 -450 knob 32 32 0 10000 0 0 empty dlybpcrcl empty 0 -8 0
8 -262144 -1 -1 0 1;
#X obj 28 -477 hsl 128 15 0 1 0 1 empty dlyfbkcrcl empty -2 -8 0 10
-262144 -1 -1 0 1;
#X obj -38 -319 r~ crcdly;
#X obj -36 -340 delwrite~ crcl 2000;
#X obj 73 -428 delread~ crcl 2000;
#X obj 201 -145 r~ grndly;
#X obj 450 -329 r~ smpdly;
#X obj 201 -446 *~ 1;
#X obj 201 -415 bp~ 1000 2;
#X obj 201 -382 clip~ -0.9 0.9;
#X floatatom 312 -456 5 0 0 0 - dlytimecb -;
#X obj 261 -454 knob 32 32 0 10000 0 0 empty dlybpcb empty 0 -8 0 8
-262144 -1 -1 0 1;
#X obj 265 -481 hsl 128 15 0 1 0 1 empty dlyfbkcb empty -2 -8 0 10
-262144 -1 -1 0 1;
#X obj 201 -344 delwrite~ cube 2000;
#X obj 312 -436 delread~ cube 2000;
#X obj -38 -266 *~ 1;
#X obj -38 -235 bp~ 1000 2;
#X obj -38 -202 clip~ -0.9 0.9;
#X floatatom 74 -271 5 0 0 0 - dlytimends -;
#X obj 22 -274 knob 32 32 0 10000 0 0 empty dlybpnds empty 0 -8 0 8
-262144 -1 -1 0 1;
#X obj 26 -301 hsl 128 15 0 1 0 1 empty dlyfbknds empty -2 -8 0 10
-262144 -1 -1 0 1;
#X obj -36 -473 r~ fbcrcl;
#X obj 83 -406 s~ fbcrcl;
#X obj 200 -268 *~ 1;
#X obj 200 -237 bp~ 1000 2;
#X obj 200 -204 clip~ -0.9 0.9;
#X floatatom 312 -273 5 0 0 0 - dlytimegrn -;
#X obj 260 -276 knob 32 32 0 10000 0 0 empty dlybpgrn empty 0 -8 0
8 -262144 -1 -1 0 1;
#X obj 264 -303 hsl 128 15 0 1 0 1 empty dlyfbkgrn empty -2 -8 0 10
-262144 -1 -1 0 1;
#X obj 449 -451 *~ 1;
#X obj 449 -420 bp~ 1000 2;
#X obj 449 -387 clip~ -0.9 0.9;
#X floatatom 560 -461 5 0 0 0 - dlytimesmp -;
#X obj 509 -459 knob 32 32 0 10000 0 0 empty dlybpsmp empty 0 -8 0
8 -262144 -1 -1 0 1;
#X obj 513 -486 hsl 128 15 0 1 0 1 empty dlyfbksmp empty -2 -8 0 10
-262144 -1 -1 0 1;
#X obj 73 -382 s~ delayoutcrcl;
#X obj 201 -477 r~ fbcube;
#X obj 313 -382 s~ delayoutcube;
#X obj 201 -323 r~ cubedly;
#X obj 363 -406 s~ fbcube;
#X obj 449 -349 delwrite~ smp 2000;
#X obj 561 -387 s~ delayoutsmp;
#X obj 560 -441 delread~ smp 2000;
#X obj 449 -482 r~ fbsmp;
#X obj 611 -411 s~ fbsmp;
#X obj -37 -146 r~ ndstdly;
#X obj 74 -200 s~ delayoutndst;
#X obj -30 -172 delwrite~ ndst 2000;
#X obj 74 -251 delread~ ndst 2000;
#X obj -38 -297 r~ fbndst;
#X obj 200 -166 delwrite~ grn 2000;
#X obj 312 -202 s~ delayoutgrn;
#X obj 312 -253 delread~ grn 2000;
#X obj 327 -233 s~ fbgrn;
#X obj 200 -299 r~ fbgrn;
#X obj 89 -231 s~ fbndst;
#X connect 0 0 1 0;
#X connect 1 0 2 0;
#X connect 2 0 7 0;
#X connect 3 0 8 0;
#X connect 4 0 1 1;
#X connect 5 0 0 1;
#X connect 6 0 7 0;
#X connect 8 0 26 0;
#X connect 8 0 39 0;
#X connect 9 0 54 0;
#X connect 10 0 44 0;
#X connect 11 0 12 0;
#X connect 12 0 13 0;
#X connect 13 0 17 0;
#X connect 14 0 18 0;
#X connect 15 0 12 1;
#X connect 16 0 11 1;
#X connect 18 0 41 0;
#X connect 18 0 43 0;
#X connect 19 0 20 0;
#X connect 20 0 21 0;
#X connect 21 0 51 0;
#X connect 22 0 52 0;
#X connect 23 0 20 1;
#X connect 24 0 19 1;
#X connect 25 0 0 0;
#X connect 27 0 28 0;
#X connect 28 0 29 0;
#X connect 29 0 54 0;
#X connect 30 0 56 0;
#X connect 31 0 28 1;
#X connect 32 0 27 1;
#X connect 33 0 34 0;
#X connect 34 0 35 0;
#X connect 35 0 44 0;
#X connect 36 0 46 0;
#X connect 37 0 34 1;
#X connect 38 0 33 1;
#X connect 40 0 11 0;
#X connect 42 0 17 0;
#X connect 46 0 45 0;
#X connect 46 0 48 0;
#X connect 47 0 33 0;
#X connect 49 0 51 0;
#X connect 52 0 50 0;
#X connect 52 0 59 0;
#X connect 53 0 19 0;
#X connect 56 0 55 0;
#X connect 56 0 57 0;
#X connect 58 0 27 0;
